<svg preserveAspectRatio="xMaxYMax" viewBox="0 0 774 191" fill="none" xmlns="http://www.w3.org/2000/svg">
<rect x="488" y="29" width="222" height="13" fill="#D7D7D7"/>
<rect x="488" y="10" width="241" height="13" fill="#D7D7D7"/>
<rect x="729" y="10" width="13" height="97" fill="#D7D7D7"/>
<rect x="710" y="29" width="13" height="97" fill="#D7D7D7"/>
<rect x="729" y="107" width="45" height="13" fill="#D7D7D7"/>
<rect x="710" y="126" width="64" height="13" fill="#D7D7D7"/>
<rect x="39" y="126" width="242" height="13" fill="#D7D7D7"/>
<rect x="287" y="107" width="13" height="83" fill="#D7D7D7"/>
<rect x="45" y="107" width="242" height="13" fill="#D7D7D7"/>
<rect x="268" y="126" width="13" height="64" fill="#D7D7D7"/>
<circle cx="469" cy="26" r="26" fill="#D7D7D7"/>
<circle cx="514" cy="115" r="26" fill="#D7D7D7"/>
<path d="M517 105H530V190H517V105Z" fill="#D7D7D7"/>
<path d="M498 104H511V190H498V104Z" fill="#D7D7D7"/>
<circle cx="648" cy="116" r="26" fill="#D7D7D7"/>
<path d="M651 106H664V191H651V106Z" fill="#D7D7D7"/>
<path d="M632 105H645V191H632V105Z" fill="#D7D7D7"/>
<circle cx="380" cy="115" r="26" fill="#D7D7D7"/>
<path d="M383 105H396V190H383V105Z" fill="#D7D7D7"/>
<path d="M364 104H377V190H364V104Z" fill="#D7D7D7"/>
<circle cx="111" cy="58" r="26" fill="#D7D7D7"/>
<rect x="95" y="73" width="13" height="117" fill="#D7D7D7"/>
<rect x="114" y="73" width="13" height="117" fill="#D7D7D7"/>
<circle cx="26" cy="123" r="26" fill="#D7D7D7"/>
</svg>
