<svg preserveAspectRatio="xMaxYMax"  viewBox="0 0 354 107" fill="none" xmlns="http://www.w3.org/2000/svg">
<path d="M299.633 29.2422C300.336 29.2422 300.688 29.6875 300.688 30.5781C300.688 32.7344 299.727 34.375 297.805 35.5C295.883 36.625 293.586 37.1875 290.914 37.1875C288.242 37.1875 285.781 36.2734 283.531 34.4453C281.328 32.6172 280.227 30.6484 280.227 28.5391C280.227 24.6953 281.656 20.9687 284.516 17.3594C287.422 13.75 291.078 10.7266 295.484 8.28906C305.234 2.89844 314.961 0.203125 324.664 0.203125C335.961 0.203125 344.281 3.41406 349.625 9.83594C352.344 13.1172 353.703 16.8203 353.703 20.9453C353.703 25.0703 353 28.75 351.594 31.9844C350.188 35.2188 348.266 38.0547 345.828 40.4922C343.391 42.9297 340.672 45.1797 337.672 47.2422C334.672 49.3047 331.414 51.2734 327.898 53.1484C324.43 54.9766 321.078 56.7344 317.844 58.4219C310.016 62.5469 304.203 66.5078 300.406 70.3047C298.859 71.9453 298.32 73.9844 298.789 76.4219C298.93 77.1719 298.672 77.8281 298.016 78.3906C297.359 78.9531 296.422 79.2344 295.203 79.2344C294.031 79.2344 293.094 79.1875 292.391 79.0938C291.734 78.9531 290.891 78.7188 289.859 78.3906C287.562 77.7344 286.414 76.2109 286.414 73.8203C286.414 69.3672 288.336 65.3828 292.18 61.8672C295.273 58.9609 300.945 55.0703 309.195 50.1953C317.492 45.3203 323.68 41.5 327.758 38.7344C336.805 32.5938 341.328 26.6875 341.328 21.0156C341.328 14.875 336.102 11.8047 325.648 11.8047C321.383 11.8047 316.766 12.6953 311.797 14.4766C306.828 16.2578 302.609 18.5781 299.141 21.4375C295.719 24.2969 294.008 27.0859 294.008 29.8047C294.008 29.9922 294.242 30.2266 294.711 30.5078C295.227 30.7422 295.719 30.8594 296.188 30.8594C296.656 30.8594 297.312 30.6016 298.156 30.0859C299 29.5234 299.492 29.2422 299.633 29.2422ZM288.523 94.8438C288.523 97.4688 287.281 100.141 284.797 102.859C282.359 105.578 279.781 106.938 277.062 106.938C274.344 106.938 272.984 105.531 272.984 102.719C272.984 99.8594 274.18 97.1641 276.57 94.6328C279.008 92.0547 281.656 90.7656 284.516 90.7656C285.734 90.7656 286.695 91.1172 287.398 91.8203C288.148 92.5234 288.523 93.5312 288.523 94.8438Z" fill="#373737"/>
<path d="M29.688 95.9852V85.2868C29.688 85.046 30.2671 84.9256 31.4252 84.9256C32.5948 84.9256 33.1796 85.046 33.1796 85.2868V93.7148H35.8284C36.0348 93.7148 36.1781 93.9843 36.2584 94.5232C36.2928 94.7869 36.31 95.0564 36.31 95.3316C36.31 95.6068 36.2928 95.8877 36.2584 96.1744C36.1667 96.7248 36.0176 97 35.8112 97H30.5136C30.2613 97 30.0607 96.8968 29.9116 96.6904C29.7625 96.484 29.688 96.2489 29.688 95.9852ZM44.1286 89.7416C44.3465 89.7416 44.4554 90.1429 44.4554 90.9456C44.4554 91.1864 44.4267 91.4731 44.3694 91.8056C44.3235 92.1267 44.2318 92.2872 44.0942 92.2872H41.9098V94.0072H45.0746C45.2695 94.0072 45.4014 94.2595 45.4702 94.764C45.5046 94.9819 45.5218 95.2169 45.5218 95.4692C45.5218 95.71 45.4874 96.0253 45.4186 96.4152C45.3498 96.8051 45.2351 97 45.0746 97H39.1922C38.7565 97 38.5386 96.8223 38.5386 96.4668V85.4072C38.5386 85.1091 38.6705 84.96 38.9342 84.96H45.0918C45.3326 84.96 45.453 85.4703 45.453 86.4908C45.453 87.4999 45.3326 88.0044 45.0918 88.0044H41.9098V89.7416H44.1286ZM53.4022 96.7248C53.4022 96.9541 52.8346 97.0688 51.6994 97.0688C50.5642 97.0688 49.9966 96.9541 49.9966 96.7248V88.0904H47.9326C47.7377 88.0904 47.6001 87.8267 47.5198 87.2992C47.4854 87.0469 47.4682 86.7889 47.4682 86.5252C47.4682 86.2615 47.4854 86.0035 47.5198 85.7512C47.6001 85.2237 47.7377 84.96 47.9326 84.96H55.4146C55.6096 84.96 55.7472 85.2237 55.8274 85.7512C55.8618 86.0035 55.879 86.2615 55.879 86.5252C55.879 86.7889 55.8618 87.0469 55.8274 87.2992C55.7472 87.8267 55.6096 88.0904 55.4146 88.0904H53.4022V96.7248ZM59.8514 89.3632C59.6909 89.4091 59.5304 89.432 59.3698 89.432C59.2093 89.432 59.0488 89.4091 58.8882 89.3632C58.5672 89.2715 58.4066 89.1224 58.4066 88.916V85.2868C58.4066 85.0804 58.6532 84.9313 59.1462 84.8396C59.387 84.7937 59.6336 84.7708 59.8858 84.7708C60.1381 84.7708 60.3904 84.7937 60.6426 84.8396C61.1357 84.9313 61.3822 85.0804 61.3822 85.2868L60.3502 88.916C60.3502 89.1224 60.184 89.2715 59.8514 89.3632ZM65.1224 92.8032C65.3403 92.9752 65.713 93.2103 66.2404 93.5084C66.7794 93.8065 67.2896 93.9556 67.7712 93.9556C68.2643 93.9556 68.5108 93.7664 68.5108 93.388C68.5108 93.216 68.442 93.0669 68.3044 92.9408C68.1668 92.8032 67.9146 92.6484 67.5476 92.4764C67.1807 92.3044 66.9055 92.1725 66.722 92.0808C66.5386 91.9776 66.292 91.8171 65.9824 91.5992C65.6843 91.3699 65.455 91.1348 65.2944 90.894C64.8358 90.2404 64.6064 89.4091 64.6064 88.4C64.6064 87.3909 64.9791 86.5424 65.7244 85.8544C66.4812 85.1549 67.4674 84.8052 68.6828 84.8052C69.5084 84.8052 70.271 84.8969 70.9704 85.0804C71.6699 85.2524 72.0311 85.4817 72.054 85.7684C72.054 85.8028 72.054 85.8372 72.054 85.8716C72.054 86.2729 71.9279 86.7832 71.6756 87.4024C71.4234 88.0101 71.2456 88.3484 71.1424 88.4172C70.4086 88.0388 69.7492 87.8496 69.1644 87.8496C68.5911 87.8496 68.3044 88.056 68.3044 88.4688C68.3044 88.7211 68.5166 88.9447 68.9408 89.1396C69.0326 89.1855 69.1644 89.2485 69.3364 89.3288C69.5084 89.4091 69.7034 89.5065 69.9212 89.6212C70.1506 89.7244 70.3914 89.862 70.6436 90.034C70.9074 90.1945 71.1883 90.4124 71.4864 90.6876C72.0942 91.2609 72.398 92.0177 72.398 92.958C72.398 94.1849 72.0598 95.1883 71.3832 95.968C70.7067 96.7477 69.6632 97.1491 68.2528 97.172C67.5648 97.172 66.9399 97.1147 66.378 97C65.8276 96.8853 65.346 96.6617 64.9332 96.3292C64.5204 95.9967 64.314 95.5953 64.314 95.1252C64.314 94.6551 64.4 94.1907 64.572 93.732C64.744 93.2619 64.9275 92.9523 65.1224 92.8032ZM88.8193 96.7076C88.8193 96.9025 88.2403 97 87.0821 97C85.924 97 85.3449 96.9025 85.3449 96.7076V92.7516H82.9369V96.7076C82.9369 96.9025 82.3578 97 81.1997 97C80.0416 97 79.4625 96.9025 79.4625 96.7076V85.304C79.4625 85.0632 80.0416 84.9428 81.1997 84.9428C82.3578 84.9428 82.9369 85.0632 82.9369 85.304V89.346H85.3449V85.3384C85.3449 85.1779 85.6316 85.0632 86.2049 84.9944C86.5031 84.9715 86.7955 84.96 87.0821 84.96L87.9593 84.9944C88.5327 85.0632 88.8193 85.1779 88.8193 85.3384V96.7076ZM97.3257 89.7416C97.5435 89.7416 97.6525 90.1429 97.6525 90.9456C97.6525 91.1864 97.6238 91.4731 97.5665 91.8056C97.5206 92.1267 97.4289 92.2872 97.2913 92.2872H95.1069V94.0072H98.2717C98.4666 94.0072 98.5985 94.2595 98.6673 94.764C98.7017 94.9819 98.7189 95.2169 98.7189 95.4692C98.7189 95.71 98.6845 96.0253 98.6157 96.4152C98.5469 96.8051 98.4322 97 98.2717 97H92.3893C91.9535 97 91.7357 96.8223 91.7357 96.4668V85.4072C91.7357 85.1091 91.8675 84.96 92.1313 84.96H98.2889C98.5297 84.96 98.6501 85.4703 98.6501 86.4908C98.6501 87.4999 98.5297 88.0044 98.2889 88.0044H95.1069V89.7416H97.3257ZM101.25 95.9852V85.2868C101.25 85.046 101.829 84.9256 102.987 84.9256C104.157 84.9256 104.742 85.046 104.742 85.2868V93.7148H107.39C107.597 93.7148 107.74 93.9843 107.82 94.5232C107.855 94.7869 107.872 95.0564 107.872 95.3316C107.872 95.6068 107.855 95.8877 107.82 96.1744C107.729 96.7248 107.58 97 107.373 97H102.076C101.823 97 101.623 96.8968 101.474 96.6904C101.325 96.484 101.25 96.2489 101.25 95.9852ZM111.597 97.0344C110.554 97.0344 110.032 96.9197 110.032 96.6904V85.5448C110.032 85.1549 110.21 84.96 110.565 84.96H113.592C115.289 84.96 116.511 85.3097 117.256 86.0092C118.013 86.7087 118.391 87.7235 118.391 89.0536C118.391 90.1544 118.036 91.1635 117.325 92.0808C116.969 92.5395 116.447 92.9064 115.759 93.1816C115.071 93.4568 114.269 93.5944 113.351 93.5944V96.6732C113.351 96.8108 113.134 96.9083 112.698 96.9656C112.274 97.0115 111.907 97.0344 111.597 97.0344ZM113.351 87.9528V90.6704H113.575C113.976 90.6704 114.315 90.5443 114.59 90.292C114.865 90.0397 115.003 89.6843 115.003 89.2256C115.003 88.7669 114.905 88.4401 114.71 88.2452C114.527 88.0503 114.194 87.9528 113.713 87.9528H113.351ZM131.15 89.7416C131.368 89.7416 131.477 90.1429 131.477 90.9456C131.477 91.1864 131.448 91.4731 131.391 91.8056C131.345 92.1267 131.253 92.2872 131.115 92.2872H128.931V94.0072H132.096C132.291 94.0072 132.423 94.2595 132.491 94.764C132.526 94.9819 132.543 95.2169 132.543 95.4692C132.543 95.71 132.509 96.0253 132.44 96.4152C132.371 96.8051 132.256 97 132.096 97H126.213C125.778 97 125.56 96.8223 125.56 96.4668V85.4072C125.56 85.1091 125.692 84.96 125.955 84.96H132.113C132.354 84.96 132.474 85.4703 132.474 86.4908C132.474 87.4999 132.354 88.0044 132.113 88.0044H128.931V89.7416H131.15ZM143.33 97.0344C142.333 97.0344 141.794 96.8739 141.713 96.5528L141.146 94.334H138.411L137.912 96.4668C137.843 96.8223 137.293 97 136.261 97C135.711 97 135.304 96.9713 135.04 96.914C134.776 96.8452 134.644 96.7936 134.644 96.7592L137.689 85.1148C137.689 85.0231 138.474 84.9772 140.045 84.9772C141.616 84.9772 142.401 85.0231 142.401 85.1148L145.377 96.7764C145.377 96.8567 145.113 96.9197 144.586 96.9656C144.058 97.0115 143.64 97.0344 143.33 97.0344ZM138.841 92.1496H140.647L139.873 88.5892H139.77L138.841 92.1496ZM152.64 84.8052C153.477 84.8052 154.211 84.9256 154.842 85.1664C155.484 85.3957 155.805 85.7111 155.805 86.1124C155.805 86.5137 155.65 87.0125 155.341 87.6088C155.042 88.1936 154.79 88.486 154.584 88.486C154.526 88.486 154.458 88.4573 154.377 88.4C154.309 88.3312 154.137 88.2624 153.861 88.1936C153.598 88.1133 153.368 88.0732 153.173 88.0732C152.508 88.0732 151.969 88.3083 151.557 88.7784C151.155 89.2485 150.955 89.9709 150.955 90.9456C150.955 91.9088 151.161 92.6255 151.574 93.0956C151.998 93.5657 152.531 93.8008 153.173 93.8008C153.437 93.8008 153.73 93.7664 154.051 93.6976C154.383 93.6173 154.618 93.5084 154.756 93.3708C154.779 93.3479 154.825 93.3364 154.893 93.3364C154.962 93.3364 155.088 93.4683 155.272 93.732C155.467 93.9843 155.644 94.3225 155.805 94.7468C155.966 95.1596 156.046 95.4807 156.046 95.71C156.046 96.1572 155.702 96.5127 155.014 96.7764C154.326 97.0401 153.512 97.172 152.571 97.172C151.058 97.172 149.814 96.6388 148.839 95.5724C147.864 94.506 147.377 93.0039 147.377 91.066C147.377 89.1167 147.876 87.5859 148.873 86.4736C149.882 85.3613 151.138 84.8052 152.64 84.8052ZM167.923 96.7076C167.923 96.9025 167.344 97 166.186 97C165.028 97 164.449 96.9025 164.449 96.7076V92.7516H162.041V96.7076C162.041 96.9025 161.462 97 160.304 97C159.145 97 158.566 96.9025 158.566 96.7076V85.304C158.566 85.0632 159.145 84.9428 160.304 84.9428C161.462 84.9428 162.041 85.0632 162.041 85.304V89.346H164.449V85.3384C164.449 85.1779 164.735 85.0632 165.309 84.9944C165.607 84.9715 165.899 84.96 166.186 84.96L167.063 84.9944C167.637 85.0632 167.923 85.1779 167.923 85.3384V96.7076ZM180.394 97.172C178.788 97.172 177.475 96.6445 176.455 95.5896C175.446 94.5347 174.941 92.9981 174.941 90.98C174.941 88.9504 175.452 87.4139 176.472 86.3704C177.504 85.3269 178.829 84.8052 180.445 84.8052C182.074 84.8052 183.387 85.3212 184.384 86.3532C185.382 87.3737 185.881 88.9275 185.881 91.0144C185.881 93.0899 185.37 94.6379 184.35 95.6584C183.329 96.6675 182.011 97.172 180.394 97.172ZM180.411 88.1076C179.861 88.1076 179.396 88.3599 179.018 88.8644C178.651 89.3689 178.467 90.0799 178.467 90.9972C178.467 91.9031 178.645 92.6025 179.001 93.0956C179.356 93.5772 179.82 93.818 180.394 93.818C180.979 93.818 181.449 93.5715 181.804 93.0784C182.171 92.5853 182.355 91.8801 182.355 90.9628C182.355 90.0455 182.165 89.3403 181.787 88.8472C181.42 88.3541 180.961 88.1076 180.411 88.1076ZM193.643 96.7248C193.643 96.9541 193.075 97.0688 191.94 97.0688C190.805 97.0688 190.237 96.9541 190.237 96.7248V88.0904H188.173C187.978 88.0904 187.841 87.8267 187.76 87.2992C187.726 87.0469 187.709 86.7889 187.709 86.5252C187.709 86.2615 187.726 86.0035 187.76 85.7512C187.841 85.2237 187.978 84.96 188.173 84.96H195.655C195.85 84.96 195.988 85.2237 196.068 85.7512C196.102 86.0035 196.12 86.2615 196.12 86.5252C196.12 86.7889 196.102 87.0469 196.068 87.2992C195.988 87.8267 195.85 88.0904 195.655 88.0904H193.643V96.7248ZM207.66 96.7076C207.66 96.9025 207.081 97 205.923 97C204.765 97 204.186 96.9025 204.186 96.7076V92.7516H201.778V96.7076C201.778 96.9025 201.198 97 200.04 97C198.882 97 198.303 96.9025 198.303 96.7076V85.304C198.303 85.0632 198.882 84.9428 200.04 84.9428C201.198 84.9428 201.778 85.0632 201.778 85.304V89.346H204.186V85.3384C204.186 85.1779 204.472 85.0632 205.046 84.9944C205.344 84.9715 205.636 84.96 205.923 84.96L206.8 84.9944C207.373 85.0632 207.66 85.1779 207.66 85.3384V96.7076ZM216.166 89.7416C216.384 89.7416 216.493 90.1429 216.493 90.9456C216.493 91.1864 216.464 91.4731 216.407 91.8056C216.361 92.1267 216.269 92.2872 216.132 92.2872H213.947V94.0072H217.112C217.307 94.0072 217.439 94.2595 217.508 94.764C217.542 94.9819 217.559 95.2169 217.559 95.4692C217.559 95.71 217.525 96.0253 217.456 96.4152C217.387 96.8051 217.273 97 217.112 97H211.23C210.794 97 210.576 96.8223 210.576 96.4668V85.4072C210.576 85.1091 210.708 84.96 210.972 84.96H217.129C217.37 84.96 217.491 85.4703 217.491 86.4908C217.491 87.4999 217.37 88.0044 217.129 88.0044H213.947V89.7416H216.166ZM223.548 96.7592C223.548 96.9427 223.003 97.0344 221.914 97.0344C220.813 97.0344 220.263 96.9484 220.263 96.7764V85.562C220.263 85.1607 220.475 84.96 220.899 84.96H224.184C227.2 84.96 228.708 86.1353 228.708 88.486C228.708 89.1969 228.57 89.8448 228.295 90.4296C228.02 91.0029 227.63 91.4616 227.125 91.8056L229.293 95.4176C229.201 95.6928 228.903 96.0081 228.398 96.3636C227.71 96.8567 227.143 97.1032 226.695 97.1032C226.248 97.1032 225.916 96.9427 225.698 96.6216L224.081 92.8548H223.548V96.7592ZM223.548 88.0044V90.5844H223.634C224.723 90.5844 225.268 90.1315 225.268 89.2256C225.268 88.8128 225.159 88.5089 224.941 88.314C224.735 88.1076 224.391 88.0044 223.909 88.0044H223.548ZM238.81 93.388C238.81 93.4568 238.397 93.4912 237.571 93.4912C236.757 93.4912 236.35 93.4625 236.35 93.4052L236.006 84.9256C236.006 84.8339 236.528 84.788 237.571 84.788C238.626 84.788 239.154 84.8281 239.154 84.9084L238.81 93.388ZM235.972 94.42C235.972 94.3397 236.499 94.2996 237.554 94.2996C238.621 94.2996 239.154 94.334 239.154 94.4028V96.8796C239.154 96.9943 238.621 97.0516 237.554 97.0516C236.499 97.0516 235.972 97.0172 235.972 96.9484V94.42Z" fill="#373737"/>
<path d="M17.6804 39.0288C19.3455 39.0288 20.8767 39.2369 22.2742 39.6532C23.7014 40.0397 25.1435 40.6641 26.6004 41.5264L27.6262 40.679C28.3398 40.1141 28.9196 39.7275 29.3656 39.5194C29.8413 39.3113 30.3765 39.2072 30.9712 39.2072C31.6848 39.2072 32.2497 39.3707 32.666 39.6978C33.0823 39.9951 33.2904 40.4411 33.2904 41.0358C33.2904 41.2737 33.2458 41.5264 33.1566 41.794L31.2834 47.9488C31.0753 48.6624 30.8077 49.1679 30.4806 49.4652C30.1833 49.7625 29.7224 49.9112 29.098 49.9112C28.4439 49.9112 27.8641 49.7179 27.3586 49.3314C26.8829 48.9151 26.1247 48.0826 25.084 46.8338C24.0433 45.6445 23.0919 44.8119 22.2296 44.3362C21.3971 43.8307 20.5348 43.578 19.6428 43.578C18.9887 43.578 18.4386 43.801 17.9926 44.247C17.5466 44.6633 17.3236 45.1836 17.3236 45.808C17.3236 46.5216 17.6804 47.1906 18.394 47.815C19.1076 48.4097 20.2226 49.1679 21.739 50.0896C23.2851 51.0113 24.5637 51.8439 25.5746 52.5872C26.5855 53.3305 27.4478 54.2523 28.1614 55.3524C28.875 56.4525 29.2318 57.7162 29.2318 59.1434C29.2318 60.0651 29.0831 60.9869 28.7858 61.9086C28.0722 64.2873 26.6896 66.101 24.638 67.3498C22.5864 68.5689 20.1929 69.1784 17.4574 69.1784C15.4058 69.1784 13.6813 68.9405 12.2838 68.4648C10.8863 67.9891 9.45913 67.1863 8.0022 66.0564L6.3966 67.3944C5.65327 68.0188 5.04373 68.4499 4.568 68.6878C4.09227 68.8959 3.55707 69 2.9624 69C2.27853 69 1.72847 68.8365 1.3122 68.5094C0.925667 68.1823 0.7324 67.7363 0.7324 67.1714C0.7324 66.8741 0.791867 66.5619 0.9108 66.2348L3.0962 59.5894C3.33407 58.8163 3.66113 58.2663 4.0774 57.9392C4.49367 57.6121 5.02887 57.4486 5.683 57.4486C6.36687 57.4486 6.9764 57.6865 7.5116 58.1622C8.07653 58.6379 8.805 59.5002 9.697 60.749C10.6485 62.1167 11.5256 63.0682 12.3284 63.6034C13.1609 64.1386 14.1421 64.4062 15.272 64.4062C16.0748 64.4062 16.6843 64.2873 17.1006 64.0494C17.5466 63.7818 17.8588 63.3655 18.0372 62.8006C18.0967 62.6519 18.1264 62.4289 18.1264 62.1316C18.1264 61.418 17.7845 60.7639 17.1006 60.1692C16.4167 59.5745 15.3612 58.8609 13.934 58.0284C12.4176 57.1067 11.1837 56.289 10.2322 55.5754C9.28073 54.8321 8.4482 53.9103 7.7346 52.8102C7.05073 51.7101 6.7088 50.4167 6.7088 48.93C6.7088 47.8893 6.87233 46.8635 7.1994 45.8526C7.8238 43.801 9.10233 42.1508 11.035 40.902C12.9677 39.6532 15.1828 39.0288 17.6804 39.0288ZM67.4742 39.2964C69.1095 39.2964 69.9272 39.9654 69.9272 41.3034C69.9272 41.7197 69.838 42.24 69.6596 42.8644L68.5892 46.477C68.2621 47.5771 67.8607 48.3502 67.385 48.7962C66.9093 49.2422 66.2254 49.4652 65.3334 49.4652C64.5901 49.4652 64.0103 49.2719 63.594 48.8854C63.2075 48.4989 62.8358 47.8893 62.479 47.0568L61.7208 45.2282C61.4829 44.6633 61.2302 44.2767 60.9626 44.0686C60.695 43.8605 60.2787 43.7564 59.7138 43.7564H58.688L53.0238 63.6926C52.9346 64.0791 52.89 64.4211 52.89 64.7184C52.89 65.0752 52.9346 65.3725 53.0238 65.6104C53.1427 65.8483 53.3063 66.101 53.5144 66.3686C53.782 66.7849 53.9158 67.1268 53.9158 67.3944C53.9158 67.4539 53.8861 67.6025 53.8266 67.8404C53.6779 68.2269 53.3806 68.5094 52.9346 68.6878C52.5183 68.8662 51.9088 68.9554 51.106 68.9554H40.625C40.0006 68.9554 39.51 68.8513 39.1532 68.6432C38.8261 68.4351 38.6626 68.1377 38.6626 67.7512C38.6626 67.5728 38.7072 67.3944 38.7964 67.216C38.9153 66.9484 39.0491 66.7551 39.1978 66.6362C39.3762 66.4875 39.6289 66.3091 39.956 66.101C40.402 65.8334 40.7737 65.5361 41.071 65.209C41.3683 64.8819 41.6211 64.3765 41.8292 63.6926L47.4488 43.7564H46.423C45.7689 43.7564 45.2337 43.8605 44.8174 44.0686C44.4011 44.2767 43.9551 44.6633 43.4794 45.2282L42.0076 47.0568C41.3237 47.8596 40.6547 48.4691 40.0006 48.8854C39.3762 49.2719 38.6923 49.4652 37.949 49.4652C37.2651 49.4652 36.7299 49.2868 36.3434 48.93C35.9569 48.5732 35.7636 48.0826 35.7636 47.4582C35.7636 47.1609 35.8082 46.8338 35.8974 46.477L37.057 42.4184C37.2949 41.5859 37.5625 40.9615 37.8598 40.5452C38.1571 40.0992 38.5734 39.787 39.1086 39.6086C39.6735 39.4005 40.4615 39.2964 41.4724 39.2964H67.4742ZM92.8422 45.3174C93.4071 43.2658 94.1951 41.7197 95.206 40.679C96.2467 39.6383 97.6739 39.118 99.4876 39.118C100.915 39.118 102.06 39.5789 102.922 40.5006C103.784 41.3926 104.215 42.5076 104.215 43.8456C104.215 44.2916 104.141 44.8119 103.992 45.4066C103.665 46.7149 103.085 47.6663 102.253 48.261C101.42 48.8259 100.513 49.1084 99.5322 49.1084C99.0267 49.1084 98.5659 49.0787 98.1496 49.0192C97.7631 48.93 97.3914 48.8259 97.0346 48.707L94.4032 58.3852C93.4517 61.9235 91.861 64.6292 89.631 66.5024C87.401 68.3459 84.3682 69.2676 80.5326 69.2676C77.0241 69.2676 74.2886 68.5986 72.3262 67.2606C70.3935 65.9226 69.4272 63.8413 69.4272 61.0166C69.4272 59.6489 69.6651 58.1473 70.1408 56.512L73.5304 44.5146C73.6493 44.1281 73.7088 43.7564 73.7088 43.3996C73.7088 43.0428 73.6493 42.7603 73.5304 42.5522C73.4412 42.3143 73.3074 42.0467 73.129 41.7494C72.8614 41.3629 72.7276 41.0507 72.7276 40.8128C72.7276 40.6939 72.7573 40.5452 72.8168 40.3668C72.9357 39.9803 73.2033 39.7127 73.6196 39.564C74.0359 39.3856 74.6454 39.2964 75.4482 39.2964H85.9292C87.2077 39.2964 87.847 39.6829 87.847 40.456C87.847 40.6344 87.8321 40.7831 87.8024 40.902C87.7132 41.1696 87.5794 41.3926 87.401 41.571C87.2523 41.7197 87.0145 41.8981 86.6874 42.1062C86.2117 42.3738 85.8251 42.6711 85.5278 42.9982C85.2305 43.3253 84.9777 43.8307 84.7696 44.5146L80.8894 58.1622C80.6218 59.1731 80.488 60.0354 80.488 60.749C80.488 62.7411 81.5584 63.7372 83.6992 63.7372C85.0075 63.7372 86.0927 63.3209 86.955 62.4884C87.847 61.6261 88.5903 60.1692 89.185 58.1176L92.8422 45.3174ZM121.233 39.2964C125.693 39.2964 129.052 40.1587 131.312 41.8832C133.572 43.578 134.702 46.0756 134.702 49.376C134.702 51.0113 134.404 52.8994 133.81 55.0402C132.829 58.4893 131.505 61.2247 129.84 63.2466C128.175 65.2685 125.975 66.7403 123.24 67.662C120.534 68.5837 117.055 69.0297 112.803 69L100.672 68.9554C100.048 68.9554 99.5718 68.8513 99.2447 68.6432C98.8879 68.4351 98.7095 68.1526 98.7095 67.7958C98.7095 67.6174 98.7541 67.4241 98.8433 67.216C98.9325 66.9484 99.0663 66.7551 99.2447 66.6362C99.3934 66.5173 99.6313 66.3537 99.9583 66.1456C100.434 65.878 100.806 65.5807 101.073 65.2536C101.371 64.9265 101.623 64.4062 101.832 63.6926L107.273 44.5146C107.392 44.1281 107.451 43.7564 107.451 43.3996C107.451 43.0725 107.392 42.8049 107.273 42.5968C107.184 42.3589 107.05 42.0913 106.871 41.794C106.604 41.4075 106.47 41.0953 106.47 40.8574C106.47 40.7682 106.5 40.6047 106.559 40.3668C106.678 39.9803 106.931 39.7127 107.317 39.564C107.734 39.3856 108.358 39.2964 109.191 39.2964H121.233ZM122.392 54.059C123.165 51.2641 123.552 49.0638 123.552 47.4582C123.552 45.8823 123.225 44.7971 122.571 44.2024C121.916 43.6077 120.98 43.3104 119.761 43.3104H118.78L112.759 64.986H113.829C115.197 64.986 116.341 64.7035 117.263 64.1386C118.215 63.5439 119.092 62.4735 119.895 60.9274C120.697 59.3515 121.53 57.0621 122.392 54.059ZM144.668 38.003C145.976 38.003 147.106 38.4936 148.058 39.4748C149.009 40.456 149.485 41.7494 149.485 43.355C149.485 43.9794 149.396 44.6484 149.217 45.362C148.89 46.7 148.296 47.8596 147.433 48.8408C146.601 49.7923 145.634 50.5207 144.534 51.0262C143.434 51.5019 142.364 51.7398 141.323 51.7398C140.104 51.7398 139.494 51.383 139.494 50.6694C139.494 50.491 139.509 50.3572 139.539 50.268C139.628 49.9409 139.807 49.6733 140.074 49.4652C140.342 49.2273 140.758 48.9151 141.323 48.5286C141.977 48.0529 142.453 47.6663 142.75 47.369C143.048 47.0717 143.196 46.7149 143.196 46.2986C143.196 46.031 143.107 45.7634 142.929 45.4958C142.78 45.2282 142.527 44.8714 142.17 44.4254C141.695 43.801 141.338 43.2807 141.1 42.8644C140.862 42.4481 140.743 41.9724 140.743 41.4372C140.743 41.1101 140.788 40.7979 140.877 40.5006C141.115 39.6978 141.561 39.0883 142.215 38.672C142.869 38.226 143.687 38.003 144.668 38.003ZM186.847 39.2964C187.471 39.2964 187.947 39.4005 188.274 39.6086C188.631 39.8167 188.809 40.0843 188.809 40.4114C188.809 40.5601 188.765 40.7533 188.675 40.9912C188.586 41.1993 188.452 41.3926 188.274 41.571C188.125 41.7197 187.977 41.8386 187.828 41.9278C187.709 41.9873 187.62 42.0467 187.56 42.1062C187.085 42.3738 186.698 42.6711 186.401 42.9982C186.103 43.3253 185.851 43.8307 185.643 44.5146L180.157 63.7372C180.038 64.1237 179.978 64.4954 179.978 64.8522C179.978 65.209 180.023 65.4915 180.112 65.6996C180.231 65.9077 180.395 66.1753 180.603 66.5024C180.633 66.5321 180.707 66.6511 180.826 66.8592C180.974 67.0376 181.049 67.2309 181.049 67.439C181.049 67.4985 181.019 67.6471 180.96 67.885C180.811 68.3013 180.528 68.5986 180.112 68.777C179.696 68.9257 179.072 69 178.239 69H167.758C167.134 69 166.643 68.8959 166.286 68.6878C165.959 68.4797 165.796 68.1972 165.796 67.8404C165.796 67.662 165.84 67.4687 165.929 67.2606C166.048 67.0227 166.212 66.8295 166.42 66.6808C166.628 66.5024 166.836 66.3537 167.044 66.2348C167.52 65.9672 167.907 65.6699 168.204 65.3428C168.501 64.986 168.754 64.4508 168.962 63.7372L171.103 56.289H163.209L161.068 63.7372C160.949 64.1237 160.89 64.4954 160.89 64.8522C160.89 65.209 160.934 65.4915 161.023 65.6996C161.142 65.9077 161.306 66.1753 161.514 66.5024C161.544 66.5321 161.618 66.6511 161.737 66.8592C161.886 67.0376 161.96 67.2309 161.96 67.439C161.96 67.4985 161.93 67.6471 161.871 67.885C161.722 68.3013 161.44 68.5986 161.023 68.777C160.607 68.9257 159.983 69 159.15 69H148.669C148.045 69 147.569 68.8959 147.242 68.6878C146.885 68.4797 146.707 68.1972 146.707 67.8404C146.707 67.662 146.751 67.4687 146.841 67.2606C146.96 67.0227 147.123 66.8295 147.331 66.6808C147.539 66.5024 147.747 66.3537 147.956 66.2348C148.431 65.9672 148.818 65.6699 149.115 65.3428C149.413 64.986 149.665 64.4508 149.873 63.7372L155.359 44.5146C155.478 44.1281 155.538 43.7564 155.538 43.3996C155.538 43.0725 155.478 42.8049 155.359 42.5968C155.27 42.3589 155.136 42.0913 154.958 41.794C154.839 41.6453 154.735 41.4967 154.646 41.348C154.556 41.1696 154.512 40.9912 154.512 40.8128C154.512 40.7533 154.542 40.6047 154.601 40.3668C154.72 39.9803 154.988 39.7127 155.404 39.564C155.82 39.3856 156.444 39.2964 157.277 39.2964H167.758C168.382 39.2964 168.858 39.4005 169.185 39.6086C169.542 39.8167 169.72 40.0843 169.72 40.4114C169.72 40.5601 169.676 40.7533 169.587 40.9912C169.497 41.1993 169.364 41.3926 169.185 41.571C169.037 41.7197 168.888 41.8386 168.739 41.9278C168.62 41.9873 168.531 42.0467 168.472 42.1062C167.996 42.3738 167.609 42.6711 167.312 42.9982C167.015 43.3253 166.762 43.8307 166.554 44.5146L164.458 51.829H172.352L174.448 44.5146C174.567 44.1281 174.626 43.7564 174.626 43.3996C174.626 43.0725 174.567 42.8049 174.448 42.5968C174.359 42.3589 174.225 42.0913 174.047 41.794C173.928 41.6453 173.824 41.4967 173.734 41.348C173.645 41.1696 173.601 40.9912 173.601 40.8128C173.601 40.7533 173.63 40.6047 173.69 40.3668C173.809 39.9803 174.076 39.7127 174.493 39.564C174.909 39.3856 175.533 39.2964 176.366 39.2964H186.847ZM215.536 39.2964C216.636 39.2964 217.484 39.5343 218.078 40.01C218.703 40.4857 219.015 41.1399 219.015 41.9724C219.015 42.3887 218.955 42.7901 218.836 43.1766L217.677 47.3244C217.469 48.1272 217.157 48.6921 216.74 49.0192C216.354 49.3165 215.789 49.4652 215.045 49.4652C214.332 49.4652 213.767 49.3165 213.351 49.0192C212.964 48.6921 212.667 48.1718 212.459 47.4582L211.745 44.916C211.596 44.3808 211.418 44.024 211.21 43.8456C211.002 43.6672 210.6 43.578 210.006 43.578H205.323L203.093 51.5168H205.055C205.263 51.5168 205.546 51.3681 205.902 51.0708L207.419 49.7328C207.865 49.3463 208.251 49.0638 208.578 48.8854C208.906 48.707 209.307 48.6178 209.783 48.6178C210.318 48.6178 210.749 48.7665 211.076 49.0638C211.433 49.3314 211.611 49.6882 211.611 50.1342C211.611 50.2531 211.582 50.4315 211.522 50.6694L209.693 56.8688C209.515 57.5229 209.203 58.0135 208.757 58.3406C208.341 58.6379 207.88 58.7866 207.374 58.7866C206.542 58.7866 205.917 58.3555 205.501 57.4932L204.743 55.9322C204.535 55.4862 204.208 55.2632 203.762 55.2632H202.022L199.391 64.7184H203.316C203.881 64.7184 204.371 64.6143 204.787 64.4062C205.233 64.1683 205.709 63.7669 206.215 63.202L208.891 60.2584C209.366 59.7529 209.812 59.3961 210.229 59.188C210.675 58.9501 211.21 58.8312 211.834 58.8312C212.488 58.8312 213.024 58.9799 213.44 59.2772C213.856 59.5745 214.064 60.0205 214.064 60.6152C214.064 60.8531 214.02 61.1355 213.93 61.4626L212.637 65.9672C212.31 67.0971 211.834 67.885 211.21 68.331C210.585 68.777 209.679 69 208.489 69H187.215C186.591 69 186.115 68.8959 185.788 68.6878C185.431 68.4797 185.253 68.1972 185.253 67.8404C185.253 67.662 185.297 67.4687 185.386 67.2606C185.505 66.9335 185.699 66.6808 185.966 66.5024C186.234 66.324 186.397 66.2199 186.457 66.1902C186.933 65.8929 187.319 65.5955 187.616 65.2982C187.914 64.9711 188.167 64.4508 188.375 63.7372L193.86 44.5146C193.979 44.1281 194.039 43.7713 194.039 43.4442C194.039 43.0874 193.979 42.7901 193.86 42.5522C193.771 42.3143 193.623 42.0616 193.414 41.794C193.147 41.4075 193.013 41.0953 193.013 40.8574C193.013 40.7682 193.043 40.6047 193.102 40.3668C193.221 39.9803 193.489 39.7127 193.905 39.564C194.321 39.3856 194.931 39.2964 195.734 39.2964H215.536ZM241.455 57.4932C242.287 57.4932 242.912 57.6716 243.328 58.0284C243.774 58.3555 243.997 58.8312 243.997 59.4556C243.997 59.7232 243.952 60.0205 243.863 60.3476L242.391 65.5658C242.005 66.8443 241.455 67.7363 240.741 68.2418C240.057 68.7473 239.031 69 237.664 69H216.702C216.077 69 215.601 68.8959 215.274 68.6878C214.918 68.4797 214.739 68.1972 214.739 67.8404C214.739 67.662 214.784 67.4687 214.873 67.2606C214.962 67.0227 215.111 66.8295 215.319 66.6808C215.527 66.5024 215.75 66.3389 215.988 66.1902C216.464 65.8929 216.85 65.5955 217.148 65.2982C217.445 64.9711 217.698 64.4508 217.906 63.7372L223.347 44.5146C223.466 44.1281 223.525 43.7564 223.525 43.3996C223.525 43.0725 223.466 42.8049 223.347 42.5968C223.258 42.3589 223.124 42.0913 222.946 41.794C222.678 41.4075 222.544 41.0953 222.544 40.8574C222.544 40.7682 222.574 40.6047 222.633 40.3668C222.752 39.9803 223.005 39.7127 223.392 39.564C223.808 39.3856 224.432 39.2964 225.265 39.2964H235.746C236.37 39.2964 236.846 39.4005 237.173 39.6086C237.53 39.787 237.708 40.0546 237.708 40.4114C237.708 40.5601 237.664 40.7533 237.574 40.9912C237.485 41.1993 237.351 41.3926 237.173 41.571C237.024 41.7197 236.876 41.8386 236.727 41.9278C236.608 41.9873 236.519 42.0467 236.459 42.1062C235.984 42.3738 235.597 42.6711 235.3 42.9982C235.002 43.3253 234.75 43.8307 234.542 44.5146L228.788 64.7184H231.553C232.237 64.7184 232.817 64.5995 233.293 64.3616C233.798 64.1237 234.319 63.6777 234.854 63.0236L237.931 59.3664C238.496 58.7123 239.031 58.2365 239.537 57.9392C240.072 57.6419 240.711 57.4932 241.455 57.4932ZM268.989 39.2964C272.141 39.2964 274.564 39.9803 276.259 41.348C277.984 42.7157 278.846 44.5295 278.846 46.7892C278.846 47.6812 278.712 48.6178 278.444 49.599C277.612 52.5723 275.962 54.7726 273.494 56.1998C271.056 57.627 267.963 58.3406 264.217 58.3406H259.623L258.107 63.7372C258.047 63.9156 258.018 64.1535 258.018 64.4508C258.018 64.8671 258.107 65.209 258.285 65.4766C258.493 65.7442 258.791 66.0564 259.177 66.4132C259.504 66.7105 259.727 66.9335 259.846 67.0822C259.965 67.2309 260.025 67.4093 260.025 67.6174C260.025 68.1229 259.787 68.4797 259.311 68.6878C258.835 68.8959 258.137 69 257.215 69H246.02C245.247 69 244.667 68.8662 244.281 68.5986C243.894 68.3013 243.76 67.8999 243.879 67.3944C243.939 67.1268 244.058 66.9187 244.236 66.77C244.385 66.5916 244.623 66.3983 244.95 66.1902C245.455 65.8929 245.857 65.5807 246.154 65.2536C246.451 64.9265 246.689 64.4211 246.868 63.7372L252.309 44.5146C252.428 44.1281 252.487 43.7564 252.487 43.3996C252.487 43.0725 252.428 42.8049 252.309 42.5968C252.22 42.3589 252.086 42.0913 251.907 41.794C251.64 41.4075 251.506 41.0953 251.506 40.8574C251.506 40.7682 251.536 40.6047 251.595 40.3668C251.714 39.9803 251.967 39.7127 252.353 39.564C252.77 39.3856 253.394 39.2964 254.227 39.2964H268.989ZM267.83 48.7962C268.157 47.6961 268.32 46.7297 268.32 45.8972C268.32 44.1727 267.517 43.3104 265.912 43.3104H263.905L260.738 54.3266H262.701C263.949 54.3266 264.96 53.9401 265.733 53.167C266.536 52.3642 267.235 50.9073 267.83 48.7962Z" fill="#373737"/>
</svg>
